<?xml version="1.0" encoding="UTF-8"?>
<svg id="Layer_2" data-name="Layer 2" xmlns="http://www.w3.org/2000/svg" viewBox="0 0 824.26 614.44">
  <defs>
    <style>
      .cls-1 {
        fill: #fffef0;
      }
    </style>
  </defs>
  <g id="Layer_1-2" data-name="Layer 1">
    <path class="cls-1" d="m503.47,26.26c-1.62-4.6-3.58-9.05-6.25-13.18-7-10.86-17.08-14.49-29.43-12.6-11.33,1.73-21.47,6.76-31.66,11.65-10.55,5.07-20.86,10.69-32.02,14.44-4.98,1.67-10.07,2.62-15.34,2.62H0v36.44h504.34V29.19c-.35-1.26-.26-1.22-.86-2.94Z"/>
    <path d="m528.09,62.86c-1.62-4.6-3.58-9.05-6.25-13.18-7-10.86-17.08-14.49-29.43-12.6-11.33,1.73-21.47,6.76-31.66,11.65-10.55,5.07-20.86,10.69-32.02,14.44-4.98,1.67-10.07,2.62-15.34,2.62H0v36.44h528.95v-36.44c-.35-1.26-.26-1.22-.86-2.94Z"/>
    <path class="cls-1" d="m547.69,100.84c-1.62-4.6-3.58-9.05-6.25-13.18-7-10.86-17.08-14.49-29.43-12.6-11.33,1.73-21.28,7.18-31.66,11.65s-17.04,6.68-28.2,10.43c-4.98,1.67-13.88,6.63-19.16,6.63H0v36.44h548.55v-36.44c-.35-1.26-.26-1.22-.86-2.94Z"/>
    <path d="m571.84,137.59c-1.62-4.6-3.58-9.05-6.25-13.18-7-10.86-17.08-14.49-29.43-12.6-11.33,1.73-21.47,6.76-31.66,11.65-10.55,5.07-20.86,10.69-32.02,14.44-4.98,1.67-10.07,2.62-15.34,2.62H0v36.44h572.7v-36.44c-.35-1.26-.26-1.22-.86-2.94Z"/>
    <g>
      <path class="cls-1" d="m588.52,175.72c-1.62-4.6-3.58-9.05-6.25-13.18-7-10.86-17.08-14.49-29.43-12.6-11.33,1.73-21.47,6.76-31.66,11.65-10.55,5.07-20.86,10.69-32.02,14.44-4.98,1.67-10.07,2.62-15.34,2.62H0v36.44h589.38v-36.44c-.35-1.26-.26-1.22-.86-2.94Z"/>
      <path d="m613.14,212.47c-1.62-4.6-3.58-9.05-6.25-13.18-7-10.86-17.08-14.49-29.43-12.6-11.33,1.73-21.47,6.76-31.66,11.65-10.55,5.07-20.86,10.69-32.02,14.44-4.98,1.67-10.07,2.62-15.34,2.62H0v36.44h614v-36.44c-.35-1.26-.26-1.22-.86-2.94Z"/>
      <path class="cls-1" d="m633.09,249.99c-1.62-4.6-3.58-9.05-6.25-13.18-7-10.86-17.08-14.49-29.43-12.6-11.33,1.73-21.47,6.76-31.66,11.65-10.55,5.07-20.86,10.69-32.02,14.44-4.98,1.67-10.07,2.62-15.34,2.62H0v36.44h633.96v-36.44c-.35-1.26-.26-1.22-.86-2.94Z"/>
      <path d="m655.25,286.43c-1.62-4.6-3.58-9.05-6.25-13.18-7-10.86-17.08-14.49-29.43-12.6-11.33,1.73-21.47,6.76-31.66,11.65-10.55,5.07-20.86,10.69-32.02,14.44-4.98,1.67-10.07,2.62-15.34,2.62H0v36.44h656.11v-36.44c-.35-1.26-.26-1.22-.86-2.94Z"/>
      <path class="cls-1" d="m671.93,322.87c-1.62-4.6-3.58-9.05-6.25-13.18-7-10.86-17.08-14.49-29.43-12.6-11.33,1.73-21.47,6.76-31.66,11.65-10.55,5.07-20.86,10.69-32.02,14.44-4.98,1.67-10.07,2.62-15.34,2.62H0v36.44h672.8v-36.44c-.35-1.26-.26-1.22-.86-2.94Z"/>
      <path d="m696.35,359.31c-1.62-4.6-3.58-9.05-6.25-13.18-7-10.86-17.08-14.49-29.43-12.6-11.33,1.73-21.47,6.76-31.66,11.65-10.55,5.07-20.86,10.69-32.02,14.44-4.98,1.67-10.07,2.62-15.34,2.62H0v36.44h697.21v-36.44c-.35-1.26-.26-1.22-.86-2.94Z"/>
      <path class="cls-1" d="m712.21,395.75c-1.62-4.6-3.58-9.05-6.25-13.18-7-10.86-17.08-14.49-29.43-12.6-11.33,1.73-21.47,6.76-31.66,11.65-10.55,5.07-20.86,10.69-32.02,14.44-4.98,1.67-10.07,2.62-15.34,2.62H0v36.44h713.08v-36.44c-.35-1.26-.26-1.22-.86-2.94Z"/>
      <path d="m738.25,432.19c-1.62-4.6-3.58-9.05-6.25-13.18-7-10.86-17.08-14.49-29.43-12.6-11.33,1.73-21.47,6.76-31.66,11.65-10.55,5.07-20.86,10.69-32.02,14.44-4.98,1.67-10.07,2.62-15.34,2.62H0v36.44h739.12v-36.44c-.35-1.26-.26-1.22-.86-2.94Z"/>
      <path class="cls-1" d="m754.73,468.63c-1.62-4.6-3.58-9.05-6.25-13.18-7-10.86-17.08-14.49-29.43-12.6-11.33,1.73-21.47,6.76-31.66,11.65-10.55,5.07-20.86,10.69-32.02,14.44-4.98,1.67-10.07,2.62-15.34,2.62H0v36.44h755.6v-36.44c-.35-1.26-.26-1.22-.86-2.94Z"/>
      <path d="m779.76,505.07c-1.62-4.6-3.58-9.05-6.25-13.18-7-10.86-17.08-14.49-29.43-12.6-11.33,1.73-21.47,6.76-31.66,11.65-10.55,5.07-20.86,10.69-32.02,14.44-4.98,1.67-10.07,2.62-15.34,2.62H0v36.44h780.62v-36.44c-.35-1.26-.26-1.22-.86-2.94Z"/>
      <path class="cls-1" d="m798.98,541.51c-1.62-4.6-3.58-9.05-6.25-13.18-7-10.86-17.08-14.49-29.43-12.6-11.33,1.73-21.47,6.76-31.66,11.65-10.55,5.07-20.86,10.69-32.02,14.44-4.98,1.67-10.07,2.62-15.34,2.62H0v36.44h799.85v-36.44c-.35-1.26-.26-1.22-.86-2.94Z"/>
      <path d="m823.4,577.95c-1.62-4.6-3.58-9.05-6.25-13.18-7-10.86-17.08-14.49-29.43-12.6-11.33,1.73-21.47,6.76-31.66,11.65-10.55,5.07-20.86,10.69-32.02,14.44-4.98,1.67-10.07,2.62-15.34,2.62H0v33.55h824.26v-33.55c-.35-1.26-.26-1.22-.86-2.94Z"/>
    </g>
  </g>
</svg>