<?xml version="1.0" encoding="UTF-8"?>
<svg id="Layer_2" data-name="Layer 2" xmlns="http://www.w3.org/2000/svg" viewBox="0 0 356.77 614.44">
  <defs>
    <style>
      .cls-1 {
        fill: #fffef0;
      }
    </style>
  </defs>
  <g id="Layer_1-2" data-name="Layer 1">
    <g>
      <path class="cls-1" d="m36.85,29.19v36.44H0V.54c.1-.03.2-.04.31-.06,12.35-1.89,22.42,1.74,29.43,12.6,2.67,4.14,4.63,8.58,6.25,13.18.6,1.72.52,1.68.86,2.94Z"/>
      <path d="m61.46,65.8v36.44H0v-56.71c7.97-3.74,16.09-7.09,24.92-8.44,4.25-.65,8.23-.64,11.92.08,7,1.39,12.91,5.4,17.51,12.52,2.67,4.14,4.63,8.58,6.25,13.18.6,1.72.52,1.68.86,2.94Z"/>
      <path class="cls-1" d="m81.06,103.78v36.44H0v-48.01c3.72-1.82,9.12-3.69,12.86-5.48,10.19-4.89,20.33-9.93,31.66-11.65,6.99-1.07,13.25-.38,18.64,2.4,4.14,2.13,7.76,5.48,10.79,10.2,2.67,4.14,4.63,8.58,6.25,13.18.6,1.72.52,1.68.86,2.94Z"/>
      <path d="m105.21,140.52v36.45H0v-37.67c1.69-.37,3.34-.84,5-1.4,11.16-3.75,21.46-9.37,32.02-14.44,10.19-4.89,20.33-9.93,31.66-11.65,3.79-.59,7.36-.64,10.69-.13,7.55,1.14,13.88,5.2,18.74,12.72,2.67,4.14,4.63,8.58,6.25,13.18.6,1.72.52,1.68.86,2.94Z"/>
      <path class="cls-1" d="m121.03,175.72c-1.62-4.6-3.58-9.05-6.25-13.18-7-10.86-17.08-14.49-29.43-12.6-11.33,1.73-21.47,6.76-31.66,11.65-10.55,5.07-20.86,10.69-32.02,14.44-4.98,1.67-10.07,2.62-15.34,2.62H0v36.44h121.89v-36.44c-.35-1.26-.26-1.22-.86-2.94Z"/>
      <path d="m145.65,212.47c-1.62-4.6-3.58-9.05-6.25-13.18-7-10.86-17.08-14.49-29.43-12.6-11.33,1.73-21.47,6.76-31.66,11.65-10.55,5.07-20.86,10.69-32.02,14.44-4.98,1.67-10.07,2.62-15.34,2.62H0v36.44h146.5v-36.44c-.35-1.26-.26-1.22-.86-2.94Z"/>
      <path class="cls-1" d="m165.6,249.99c-1.62-4.6-3.58-9.05-6.25-13.18-7-10.86-17.08-14.49-29.43-12.6-11.33,1.73-21.47,6.76-31.66,11.65-10.55,5.07-20.86,10.69-32.02,14.44-4.98,1.67-10.07,2.62-15.34,2.62H0v36.44h166.46v-36.44c-.35-1.26-.26-1.22-.86-2.94Z"/>
      <path d="m187.76,286.43c-1.62-4.6-3.58-9.05-6.25-13.18-7-10.86-17.08-14.49-29.43-12.6-11.33,1.73-21.47,6.76-31.66,11.65-10.55,5.07-20.86,10.69-32.02,14.44-4.98,1.67-10.07,2.62-15.34,2.62H0v36.44h188.62v-36.44c-.35-1.26-.26-1.22-.86-2.94Z"/>
      <path class="cls-1" d="m204.44,322.87c-1.62-4.6-3.58-9.05-6.25-13.18-7-10.86-17.08-14.49-29.43-12.6-11.33,1.73-21.47,6.76-31.66,11.65-10.55,5.07-20.86,10.69-32.02,14.44-4.98,1.67-10.07,2.62-15.34,2.62H0v36.44h205.3v-36.44c-.35-1.26-.26-1.22-.86-2.94Z"/>
      <path d="m228.86,359.31c-1.62-4.6-3.58-9.05-6.25-13.18-7-10.86-17.08-14.49-29.43-12.6-11.33,1.73-21.47,6.76-31.66,11.65-10.55,5.07-20.86,10.69-32.02,14.44-4.98,1.67-10.07,2.62-15.34,2.62H0v36.44h229.71v-36.44c-.35-1.26-.26-1.22-.86-2.94Z"/>
      <path class="cls-1" d="m244.72,395.75c-1.62-4.6-3.58-9.05-6.25-13.18-7-10.86-17.08-14.49-29.43-12.6-11.33,1.73-21.47,6.76-31.66,11.65-10.55,5.07-20.86,10.69-32.02,14.44-4.98,1.67-10.07,2.62-15.34,2.62H0v36.44h245.58v-36.44c-.35-1.26-.26-1.22-.86-2.94Z"/>
      <path d="m270.76,432.19c-1.62-4.6-3.58-9.05-6.25-13.18-7-10.86-17.08-14.49-29.43-12.6-11.33,1.73-21.47,6.76-31.66,11.65-10.55,5.07-20.86,10.69-32.02,14.44-4.98,1.67-10.07,2.62-15.34,2.62H0v36.44h271.62v-36.44c-.35-1.26-.26-1.22-.86-2.94Z"/>
      <path class="cls-1" d="m287.24,468.63c-1.62-4.6-3.58-9.05-6.25-13.18-7-10.86-17.08-14.49-29.43-12.6-11.33,1.73-21.47,6.76-31.66,11.65-10.55,5.07-20.86,10.69-32.02,14.44-4.98,1.67-10.07,2.62-15.34,2.62H0v36.44h288.1v-36.44c-.35-1.26-.26-1.22-.86-2.94Z"/>
      <path d="m312.27,505.07c-1.62-4.6-3.58-9.05-6.25-13.18-7-10.86-17.08-14.49-29.43-12.6-11.33,1.73-21.47,6.76-31.66,11.65-10.55,5.07-20.86,10.69-32.02,14.44-4.98,1.67-10.07,2.62-15.34,2.62H0v36.44h313.13v-36.44c-.35-1.26-.26-1.22-.86-2.94Z"/>
      <path class="cls-1" d="m331.49,541.51c-1.62-4.6-3.58-9.05-6.25-13.18-7-10.86-17.08-14.49-29.43-12.6-11.33,1.73-21.47,6.76-31.66,11.65-10.55,5.07-20.86,10.69-32.02,14.44-4.98,1.67-10.07,2.62-15.34,2.62H0v36.44h332.35v-36.44c-.35-1.26-.26-1.22-.86-2.94Z"/>
      <path d="m355.91,577.95c-1.62-4.6-3.58-9.05-6.25-13.18-7-10.86-17.08-14.49-29.43-12.6-11.33,1.73-21.47,6.76-31.66,11.65-10.55,5.07-20.86,10.69-32.02,14.44-4.98,1.67-10.07,2.62-15.34,2.62H0v33.55h356.77v-33.55c-.35-1.26-.26-1.22-.86-2.94Z"/>
    </g>
  </g>
</svg>